<svg width="30" height="30" viewBox="0 0 30 30" fill="none" xmlns="http://www.w3.org/2000/svg">
<path d="M29.4864 5.36591C29.2133 2.80746 27.1928 0.786438 24.6341 0.513611C18.2176 -0.171204 11.7824 -0.171204 5.36613 0.513611C2.80746 0.786667 0.786667 2.80746 0.513611 5.36591C-0.171204 11.7822 -0.171204 18.2176 0.513611 24.6339C0.786667 27.1925 2.80746 29.2133 5.36591 29.4864C11.7822 30.1712 18.2176 30.1712 24.6341 29.4864C27.1928 29.2133 29.2133 27.1925 29.4864 24.6339C30.1712 18.2176 30.1712 11.7824 29.4864 5.36591Z" fill="url(#paint0_radial_1198_1352)"/>
<path d="M27.8547 6.451C27.6125 4.18072 25.8194 2.38743 23.5489 2.14504C17.8553 1.53759 12.1447 1.53759 6.451 2.14504C4.18072 2.38743 2.38743 4.18072 2.14504 6.451C1.53759 12.1447 1.53759 17.8553 2.14504 23.5487C2.38743 25.8192 4.18072 27.6125 6.451 27.8547C12.1447 28.4623 17.8553 28.4623 23.5487 27.8547C25.8192 27.6125 27.6125 25.8192 27.8547 23.5487C28.4623 17.8553 28.4623 12.1447 27.8547 6.451Z" fill="url(#paint1_linear_1198_1352)"/>
<path d="M0.450195 24.012C0.470795 24.2193 0.492081 24.4267 0.514282 24.6341C0.787338 27.1925 2.80814 29.2133 5.36681 29.4864C11.783 30.1712 18.2185 30.1712 24.6348 29.4864C27.1934 29.2133 29.214 27.1925 29.4871 24.6341C29.5093 24.4267 29.5305 24.2193 29.5514 24.012H0.450195Z" fill="url(#paint2_linear_1198_1352)"/>
<path d="M29.4865 24.6338C29.8545 21.1862 30.0244 17.733 29.9969 14.2804L23.1396 7.42307C22.2829 6.44506 21.0316 5.83463 19.5613 5.78176C16.5375 5.67281 13.5041 5.6783 10.4799 5.78222C7.96817 5.86873 6.21173 7.55696 5.76129 10.0383C5.68187 10.4764 5.63426 10.9202 5.57178 11.3614V18.6358C5.60634 18.8715 5.65715 19.1061 5.67294 19.3432C5.77365 20.8525 6.39392 22.1452 7.38704 23.0198L14.3652 29.9977C17.7897 30.0217 21.2145 29.8514 24.6342 29.4864C27.1929 29.2133 29.2134 27.1925 29.4865 24.6338Z" fill="url(#paint3_linear_1198_1352)"/>
<path d="M29.4862 24.6342C29.2133 27.1924 27.1921 29.2136 24.6339 29.4865C21.2146 29.8513 17.7892 30.0218 14.3651 29.9978L7.39746 23.0302C8.20519 23.7372 9.25804 24.1677 10.4798 24.2137C13.5033 24.3272 16.5374 24.3242 19.5609 24.2153C22.2956 24.1164 24.2745 22.0924 24.3599 19.3577C24.451 16.4541 24.451 13.543 24.3599 10.6394C24.321 9.37781 23.8781 8.26773 23.1438 7.42773L29.9968 14.2807C30.0238 17.7329 29.854 21.1865 29.4862 24.6342Z" fill="url(#paint4_linear_1198_1352)"/>
<path d="M18.5399 11.7514C17.6614 10.795 16.401 10.1948 15 10.1948C12.3463 10.1948 10.1948 12.3463 10.1948 15C10.1948 16.401 10.795 17.6614 11.7514 18.5399L22.8689 29.6573C23.4574 29.6061 24.0458 29.5491 24.6338 29.4864C27.1925 29.2133 29.2133 27.1925 29.4864 24.6338C29.5491 24.0458 29.6061 23.4574 29.6573 22.8689L18.5399 11.7514Z" fill="url(#paint5_linear_1198_1352)"/>
<path d="M29.9427 18.2316L20.9953 9.28433C20.7865 9.01036 20.4576 8.83252 20.0866 8.83252C19.4554 8.83252 18.9434 9.3443 18.9434 9.97578C18.9434 10.3468 19.1212 10.6757 19.3952 10.8844L29.7827 21.2722C29.8532 20.259 29.9066 19.2453 29.9427 18.2316Z" fill="url(#paint6_linear_1198_1352)"/>
<path d="M5.57178 11.3614C5.63426 10.9202 5.68187 10.4764 5.76129 10.0383C6.2115 7.55697 7.96817 5.86873 10.4799 5.78222C13.5041 5.6783 16.5375 5.67281 19.5613 5.78176C22.295 5.88018 24.2749 7.90441 24.3602 10.6391C24.4511 13.5429 24.4511 16.4538 24.3602 19.3577C24.2749 22.0923 22.2957 24.1163 19.5615 24.215C16.5377 24.3242 13.5037 24.3269 10.4801 24.2134C7.74593 24.1106 5.85582 22.0818 5.67294 19.343C5.65715 19.1061 5.60634 18.8713 5.57178 18.6355C5.57178 16.2108 5.57178 13.786 5.57178 11.3614ZM15.0026 22.5943C16.3864 22.5943 17.7716 22.6357 19.1536 22.5847C21.3204 22.5043 22.6532 21.2111 22.7038 19.0464C22.7665 16.349 22.7665 13.648 22.7038 10.9504C22.6532 8.78606 21.3195 7.46267 19.1536 7.41666C16.4045 7.35852 13.6525 7.35898 10.9034 7.41666C8.75392 7.46175 7.41725 8.75837 7.35889 10.8989C7.28473 13.6303 7.28473 16.3666 7.35889 19.0981C7.41725 21.2384 8.75392 22.505 10.9036 22.5847C12.2682 22.6355 13.6362 22.5943 15.0026 22.5943Z" fill="url(#paint7_linear_1198_1352)"/>
<path d="M5.57178 11.3614C5.63426 10.9202 5.68187 10.4764 5.76129 10.0383C6.2115 7.55697 7.96817 5.86873 10.4799 5.78222C13.5041 5.6783 16.5375 5.67281 19.5613 5.78176C22.295 5.88018 24.2749 7.90441 24.3602 10.6391C24.4511 13.5429 24.4511 16.4538 24.3602 19.3577C24.2749 22.0923 22.2957 24.1163 19.5615 24.215C16.5377 24.3242 13.5037 24.3269 10.4801 24.2134C7.74593 24.1106 5.85582 22.0818 5.67294 19.343C5.65715 19.1061 5.60634 18.8713 5.57178 18.6355C5.57178 16.2108 5.57178 13.786 5.57178 11.3614ZM15.0026 22.5943C16.3864 22.5943 17.7716 22.6357 19.1536 22.5847C21.3204 22.5043 22.6532 21.2111 22.7038 19.0464C22.7665 16.349 22.7665 13.648 22.7038 10.9504C22.6532 8.78606 21.3195 7.46267 19.1536 7.41666C16.4045 7.35852 13.6525 7.35898 10.9034 7.41666C8.75392 7.46175 7.41725 8.75837 7.35889 10.8989C7.28473 13.6303 7.28473 16.3666 7.35889 19.0981C7.41725 21.2384 8.75392 22.505 10.9036 22.5847C12.2682 22.6355 13.6362 22.5943 15.0026 22.5943Z" fill="white"/>
<path d="M15 10.1951C12.3463 10.1951 10.1948 12.3463 10.1948 15C10.1948 17.6539 12.3463 19.8051 15 19.8051C17.6539 19.8051 19.8051 17.6539 19.8051 15C19.8051 12.3463 17.6539 10.1951 15 10.1951ZM15 18.1508C13.2598 18.1508 11.8492 16.7402 11.8492 15C11.8492 13.2598 13.2598 11.8492 15 11.8492C16.7402 11.8492 18.1508 13.2598 18.1508 15C18.1508 16.7402 16.7402 18.1508 15 18.1508Z" fill="white"/>
<path d="M21.2297 9.97578C21.2297 10.607 20.7179 11.1188 20.0866 11.1188C19.4554 11.1188 18.9434 10.607 18.9434 9.97578C18.9434 9.3443 19.4554 8.83252 20.0866 8.83252C20.7179 8.83252 21.2297 9.3443 21.2297 9.97578Z" fill="white"/>
<defs>
<radialGradient id="paint0_radial_1198_1352" cx="0" cy="0" r="1" gradientUnits="userSpaceOnUse" gradientTransform="translate(6.14983 26.2176) scale(33.0847)">
<stop stop-color="#FAE100"/>
<stop offset="0.0544" stop-color="#FADC04"/>
<stop offset="0.1167" stop-color="#FBCE0E"/>
<stop offset="0.1829" stop-color="#FCB720"/>
<stop offset="0.2514" stop-color="#FE9838"/>
<stop offset="0.3054" stop-color="#FF7950"/>
<stop offset="0.4922" stop-color="#FF1C74"/>
<stop offset="1" stop-color="#6C1CD1"/>
</radialGradient>
<linearGradient id="paint1_linear_1198_1352" x1="11.5062" y1="13.0347" x2="-39.3174" y2="-15.5535" gradientUnits="userSpaceOnUse">
<stop stop-color="#A1B5D8" stop-opacity="0"/>
<stop offset="0.3094" stop-color="#90A2BD" stop-opacity="0.309804"/>
<stop offset="0.7554" stop-color="#7C8B9C" stop-opacity="0.756863"/>
<stop offset="1" stop-color="#748290"/>
</linearGradient>
<linearGradient id="paint2_linear_1198_1352" x1="15.0007" y1="26.4824" x2="15.0007" y2="31.1586" gradientUnits="userSpaceOnUse">
<stop stop-color="#FAE100" stop-opacity="0"/>
<stop offset="0.3068" stop-color="#FCA800" stop-opacity="0.305882"/>
<stop offset="0.6275" stop-color="#FE7300" stop-opacity="0.627451"/>
<stop offset="0.8685" stop-color="#FF5200" stop-opacity="0.866667"/>
<stop offset="1" stop-color="#FF4500"/>
</linearGradient>
<linearGradient id="paint3_linear_1198_1352" x1="13.2934" y1="13.2508" x2="5.8689" y2="5.82631" gradientUnits="userSpaceOnUse">
<stop stop-color="#833AB4" stop-opacity="0"/>
<stop offset="1" stop-color="#833AB4"/>
</linearGradient>
<linearGradient id="paint4_linear_1198_1352" x1="20.5603" y1="27.4388" x2="16.8546" y2="9.96906" gradientUnits="userSpaceOnUse">
<stop stop-color="#833AB4" stop-opacity="0"/>
<stop offset="1" stop-color="#833AB4"/>
</linearGradient>
<linearGradient id="paint5_linear_1198_1352" x1="21.9706" y1="21.9706" x2="7.08636" y2="7.08635" gradientUnits="userSpaceOnUse">
<stop stop-color="#833AB4" stop-opacity="0"/>
<stop offset="1" stop-color="#833AB4"/>
</linearGradient>
<linearGradient id="paint6_linear_1198_1352" x1="23.0755" y1="12.9646" x2="18.1536" y2="8.04269" gradientUnits="userSpaceOnUse">
<stop stop-color="#833AB4" stop-opacity="0"/>
<stop offset="1" stop-color="#833AB4"/>
</linearGradient>
<linearGradient id="paint7_linear_1198_1352" x1="20.9566" y1="9.08491" x2="8.82096" y2="21.2206" gradientUnits="userSpaceOnUse">
<stop stop-color="#833AB4"/>
<stop offset="0.0922" stop-color="#9C3495"/>
<stop offset="0.2927" stop-color="#DC2546"/>
<stop offset="0.392" stop-color="#FD1D1D"/>
<stop offset="0.5589" stop-color="#FC6831"/>
<stop offset="0.6887" stop-color="#FC9B40"/>
<stop offset="0.7521" stop-color="#FCAF45"/>
<stop offset="0.7806" stop-color="#FDB750"/>
<stop offset="0.8656" stop-color="#FECB6A"/>
<stop offset="0.9415" stop-color="#FFD87A"/>
<stop offset="1" stop-color="#FFDC80"/>
</linearGradient>
</defs>
</svg>
