<svg width="247" height="73" viewBox="0 0 247 73" fill="none" xmlns="http://www.w3.org/2000/svg">
<path d="M46.2585 20.514L35.3601 41.521C35.2997 41.6375 35.1326 41.6363 35.0739 41.5188L24.8109 20.993C24.7876 20.9463 24.7884 20.8912 24.8131 20.8452L35.2378 1.41728C35.2976 1.30584 35.4568 1.30401 35.5191 1.41404L46.2556 20.3608C46.2824 20.4081 46.2835 20.4658 46.2585 20.514Z" fill="url(#paint0_linear_1568_1013)" stroke="white" stroke-width="1.28507"/>
<path d="M45.9313 41.7193L34.2259 20.9976C34.1654 20.8905 34.2427 20.7579 34.3657 20.7579H57.6047C57.6653 20.7579 57.7208 20.7921 57.7481 20.8463L68.1881 41.568C68.2419 41.6748 68.1642 41.8009 68.0446 41.8009H46.0711C46.0132 41.8009 45.9597 41.7697 45.9313 41.7193Z" fill="url(#paint1_linear_1568_1013)" stroke="white" stroke-width="1.28507"/>
<path d="M23.8099 41.9615L18.509 52.724H41.1583L52.0814 32.6448L52.5633 31.0385L40.9977 31.681L35.6968 41.9615H23.8099Z" fill="url(#paint2_linear_1568_1013)"/>
<path d="M23.9705 41.6403L18.6231 52.4923C18.5705 52.5991 18.6482 52.724 18.7672 52.724H41.3826C41.4422 52.724 41.497 52.6909 41.5247 52.6381L52.7608 31.2739C52.817 31.1669 52.7394 31.0385 52.6186 31.0385H39.8733" stroke="white" stroke-width="1.28507"/>
<path d="M29.3859 71.9185L18.6449 52.9638C18.5842 52.8567 18.6616 52.724 18.7847 52.724H41.2274C41.2841 52.724 41.3367 52.7539 41.3656 52.8028L52.5805 71.7576C52.6439 71.8646 52.5667 72 52.4422 72H29.5257C29.4678 72 29.4145 71.9689 29.3859 71.9185Z" fill="url(#paint3_linear_1568_1013)" stroke="white" stroke-width="1.28507"/>
<path d="M63.6064 51.6754L52.8586 71.7486C52.7995 71.8589 52.6425 71.8623 52.5787 71.7545L41.3648 52.8015C41.3363 52.7533 41.3349 52.6939 41.3611 52.6444L52.5828 31.4656C52.643 31.352 52.8056 31.3516 52.8663 31.465L63.6064 51.5237C63.6318 51.5711 63.6318 51.628 63.6064 51.6754Z" fill="url(#paint4_linear_1568_1013)" stroke="white" stroke-width="1.28507"/>
<path d="M12.0377 1.08204L1.1342 20.5187C1.07413 20.6258 1.15152 20.7579 1.27429 20.7579H24.5163C24.5759 20.7579 24.6305 20.725 24.6583 20.6723L34.9297 1.23569C34.9863 1.12871 34.9087 1 34.7877 1H12.1778C12.1197 1 12.0661 1.03137 12.0377 1.08204Z" fill="url(#paint5_linear_1568_1013)" stroke="white" stroke-width="1.28507"/>
<path d="M12.8407 41.7193L1.13534 20.9976C1.07485 20.8905 1.15221 20.7579 1.2752 20.7579H24.5142C24.5748 20.7579 24.6303 20.7921 24.6576 20.8463L35.0976 41.568C35.1514 41.6748 35.0737 41.8009 34.9541 41.8009H12.9806C12.9227 41.8009 12.8692 41.7697 12.8407 41.7193Z" fill="url(#paint6_linear_1568_1013)" stroke="white" stroke-width="1.28507"/>
<path d="M45.1282 1.08204L34.2247 20.5187C34.1646 20.6258 34.242 20.7579 34.3648 20.7579H57.6068C57.6664 20.7579 57.721 20.725 57.7488 20.6723L68.0202 1.23569C68.0768 1.12871 67.9992 1 67.8782 1H45.2683C45.2102 1 45.1566 1.03137 45.1282 1.08204Z" fill="url(#paint7_linear_1568_1013)" stroke="white" stroke-width="1.28507"/>
<path d="M79.349 20.514L68.4506 41.521C68.3902 41.6375 68.2231 41.6363 68.1644 41.5188L57.9015 20.993C57.8781 20.9463 57.8789 20.8912 57.9036 20.8452L68.3283 1.41728C68.3881 1.30584 68.5473 1.30401 68.6096 1.41404L79.3462 20.3608C79.3729 20.4081 79.374 20.4658 79.349 20.514Z" fill="url(#paint8_linear_1568_1013)" stroke="white" stroke-width="1.28507"/>
<path d="M111.176 48.6662H88.7398V6.73979H109.997C115.31 6.73979 119.296 7.70518 122.043 9.54319L122.049 9.54675C124.756 11.3238 126.148 14.762 126.148 18.1167C126.148 19.9951 125.676 21.6461 124.802 23.0374C123.926 24.4316 122.624 25.5995 120.97 26.5275L119.557 27.3205L121.082 27.8688C123.395 28.7006 125.116 29.8758 126.301 31.4191C127.475 32.9486 128.056 34.8426 128.056 37.0963C128.056 40.6559 126.654 43.4144 123.762 45.4978C120.85 47.5955 116.705 48.6662 111.176 48.6662ZM101.626 23.3225V24.0623H102.365H108.538C109.832 24.0623 110.937 23.7885 111.722 23.1095C112.529 22.4123 112.869 21.4039 112.869 20.2315C112.869 19.0381 112.533 18.007 111.733 17.2884C110.948 16.5833 109.84 16.2923 108.538 16.2923H102.365H101.626V17.0321V23.3225ZM102.365 32.0183H101.626V32.7581V39.4281V40.1679H102.365H110.502C111.788 40.1679 112.9 39.8575 113.689 39.112C114.487 38.3592 114.833 37.2803 114.833 36.0118C114.833 34.7965 114.5 33.7516 113.7 33.0242C112.914 32.3092 111.804 32.0183 110.502 32.0183H102.365Z" fill="#0275B4" stroke="#364287" stroke-width="1.47958"/>
<path d="M131.648 48.6131V7.73979H167.206V17.0377H145.02H144.28V17.7775V23.8432V24.583H145.02H165.53V31.7688H145.02H144.28V32.5086V38.6285V39.3683H145.02H166.27H167.206V48.6651L131.648 48.6131Z" fill="#0275B4" stroke="#364287" stroke-width="1.47958"/>
<path d="M185.384 17.9042H184.644V18.644V48.6662H171.596V7.73979H205.545V17.9042H204.07H185.384Z" fill="#0275B4" stroke="#364287" stroke-width="1.47958"/>
<path d="M230.94 42.477L230.755 42.01H230.252H214.954H214.452L214.266 42.477L211.768 48.7735H199.528L216.522 7.73979H228.899L245.893 48.7735H233.439L230.94 42.477ZM226.495 32.7539H227.558L227.189 31.7571L223.27 21.1824L222.576 19.3104L221.883 21.1824L217.964 31.7571L217.595 32.7539H218.658H226.495Z" fill="#0275B4" stroke="#364287" stroke-width="1.47958"/>
<path d="M90.1619 69.2801C89.4927 68.8825 88.978 68.3855 88.5662 67.7394C88.2059 67.0436 88 66.2982 88 65.4533C88 64.6084 88.2059 63.8629 88.5662 63.2168C88.978 62.5707 89.4927 62.024 90.1619 61.6761C90.831 61.2785 91.6031 61.1294 92.4781 61.1294C93.1988 61.1294 93.8164 61.2785 94.3826 61.527C94.9488 61.7755 95.4636 62.1731 95.8239 62.6204L94.5885 63.7635C94.0223 63.1174 93.3532 62.7695 92.5296 62.7695C92.0149 62.7695 91.5516 62.8689 91.1913 63.1174C90.7795 63.3659 90.4707 63.6641 90.2648 64.0617C90.0589 64.509 89.9045 64.9563 89.9045 65.4533C89.9045 65.9503 90.0074 66.4473 90.2133 66.8448C90.4192 67.2424 90.7281 67.5903 91.1398 67.7891C91.6031 68.0376 92.0149 68.1867 92.5296 68.1867C93.3532 68.1867 94.0223 67.8388 94.5885 67.1927L95.8239 68.3358C95.4121 68.8328 94.9488 69.1807 94.3826 69.4789C93.8164 69.7274 93.1473 69.8765 92.4267 69.8765C91.6031 69.8268 90.831 69.628 90.1619 69.2801Z" fill="#364287"/>
<path d="M102.361 68.1375V69.6782H96.8018V61.279H102.258V62.8197H98.449V64.6586H101.795V66.1496H98.449V68.0878H102.361V68.1375Z" fill="#364287"/>
<path d="M109.516 62.8694H107.199V69.6782H105.552V62.8694H103.236V61.279H109.516V62.8694Z" fill="#364287"/>
<path d="M115.847 64.7083C116.31 65.1556 116.567 65.8514 116.567 66.7459C116.567 67.6902 116.31 68.4357 115.795 68.9327C115.281 69.4297 114.56 69.6782 113.582 69.6782H110.339V61.279H111.986V64.0622H113.839C114.663 64.0125 115.332 64.261 115.847 64.7083ZM114.457 67.889C114.714 67.6405 114.817 67.2926 114.817 66.7956C114.817 65.9011 114.354 65.5035 113.428 65.5035H111.935V68.2866H113.428C113.891 68.2369 114.251 68.1375 114.457 67.889Z" fill="#364287"/>
<path d="M120.685 61.279H126.502V62.8197H122.332V64.5592H124.34C125.215 64.5592 125.884 64.758 126.347 65.2053C126.811 65.6526 127.016 66.249 127.016 67.0441C127.016 67.889 126.759 68.5351 126.244 68.9824C125.73 69.4297 125.009 69.6782 124.082 69.6782H120.634V61.279H120.685ZM123.98 68.2369C124.391 68.2369 124.752 68.1375 124.958 67.9387C125.163 67.7399 125.318 67.4417 125.318 67.0938C125.318 66.3484 124.855 66.0005 123.98 66.0005H122.332V68.2866H123.98V68.2369Z" fill="#364287"/>
<path d="M134.12 68.1375V69.6782H128.561V61.279H134.017V62.8197H130.208V64.6586H133.554V66.1496H130.208V68.0878H134.12V68.1375Z" fill="#364287"/>
<path d="M141.275 62.8694H138.958V69.6782H137.311V62.8694H134.995V61.279H141.275V62.8694Z" fill="#364287"/>
<path d="M143.9 69.2806C143.282 68.883 142.819 68.386 142.51 67.7399C142.15 67.0938 141.995 66.3483 141.995 65.5034C141.995 64.6585 142.15 63.9131 142.51 63.267C142.87 62.6209 143.333 62.0742 143.9 61.7263C144.517 61.3287 145.186 61.1796 145.907 61.1796C146.679 61.1796 147.348 61.3784 147.915 61.7263C148.532 62.1239 148.995 62.6209 149.304 63.267C149.665 63.9131 149.819 64.6585 149.819 65.5034C149.819 66.3483 149.665 67.0938 149.304 67.7399C148.944 68.386 148.481 68.9327 147.915 69.2806C147.297 69.6782 146.628 69.8273 145.907 69.8273C145.186 69.8273 144.517 69.6285 143.9 69.2806ZM147.091 67.8393C147.451 67.5908 147.709 67.2926 147.915 66.895C148.12 66.4974 148.223 66.0004 148.223 65.5034C148.223 65.0064 148.12 64.5094 147.915 64.1119C147.709 63.7143 147.451 63.3664 147.091 63.1676C146.731 62.9191 146.37 62.8197 145.959 62.8197C145.547 62.8197 145.135 62.9191 144.826 63.1676C144.517 63.4161 144.208 63.7143 144.003 64.1119C143.797 64.5094 143.694 65.0064 143.694 65.5034C143.694 66.0004 143.797 66.4974 144.003 66.895C144.208 67.2926 144.466 67.6405 144.826 67.8393C145.186 68.0381 145.547 68.1872 145.959 68.1872C146.37 68.1872 146.731 68.0381 147.091 67.8393Z" fill="#364287"/>
<path d="M158.055 61.279V69.6782H156.408V66.249H153.113V69.6782H151.466V61.279H153.113V64.5592H156.408V61.279H158.055Z" fill="#364287"/>
<path d="M166.754 61.279V69.6782H165.106V66.249H161.812V69.6782H160.165V61.279H161.812V64.5592H165.106V61.279H166.754Z" fill="#364287"/>
<path d="M174.372 64.7083C174.835 65.1556 175.092 65.8514 175.092 66.7459C175.092 67.6902 174.835 68.4357 174.32 68.9327C173.805 69.4297 173.085 69.6782 172.107 69.6782H168.813V61.279H170.46V64.0622H172.313C173.188 64.0125 173.908 64.261 174.372 64.7083ZM173.033 67.889C173.291 67.6405 173.394 67.2926 173.394 66.7956C173.394 65.9011 172.93 65.5035 172.004 65.5035H170.511V68.2866H172.004C172.416 68.2369 172.776 68.1375 173.033 67.889ZM175.967 61.279H177.614V69.6782H175.967V61.279Z" fill="#364287"/>
<path d="M181.012 61.279L182.504 63.8137L183.997 61.279H185.953L183.534 65.3047L186.159 69.6782H184.203L182.504 66.8951L180.857 69.6782H178.953L181.526 65.3544L179.107 61.2293H181.012V61.279Z" fill="#364287"/>
<path d="M195.681 66.0998C195.939 66.4477 196.042 66.895 196.042 67.3423C196.042 67.8393 195.887 68.2866 195.63 68.6842C195.321 69.0818 194.961 69.3303 194.446 69.5291C193.931 69.7279 193.417 69.8273 192.85 69.8273C192.336 69.8273 191.872 69.7776 191.358 69.6285C190.843 69.4794 190.38 69.2806 189.968 68.9824L190.483 67.5908C190.791 67.8393 191.152 67.9884 191.512 68.0878C191.872 68.1872 192.284 68.2866 192.644 68.2866C193.159 68.2866 193.571 68.1872 193.88 67.9884C194.189 67.7896 194.395 67.4914 194.395 67.0938C194.395 66.7956 194.292 66.5471 194.034 66.398C193.828 66.2489 193.519 66.1495 193.108 66.1495H191.358V64.6586H193.005C193.365 64.6586 193.622 64.5592 193.777 64.4101C193.983 64.261 194.086 64.0125 194.086 63.764C194.086 63.4161 193.931 63.1676 193.674 63.0185C193.417 62.8694 193.056 62.7203 192.644 62.7203C192.336 62.7203 192.027 62.77 191.666 62.8694C191.306 62.9688 190.997 63.1179 190.688 63.3167L190.174 61.8257C190.946 61.3784 191.769 61.1299 192.644 61.1299C193.211 61.1299 193.725 61.2293 194.189 61.4281C194.652 61.6269 195.064 61.9251 195.321 62.273C195.578 62.6209 195.733 63.0682 195.733 63.5652C195.733 63.9628 195.63 64.3107 195.475 64.6586C195.27 64.9568 195.012 65.2053 194.703 65.4041C195.115 65.4538 195.475 65.7022 195.681 66.0998Z" fill="#364287"/>
<path d="M202.527 67.889H199.182L198.564 69.6782H196.865L200.108 61.279H201.755L204.998 69.6782H203.248L202.527 67.889ZM202.013 66.3981L200.88 63.1676L199.748 66.3981H202.013Z" fill="#364287"/>
<path d="M212.153 66.0502C212.41 66.398 212.513 66.7956 212.513 67.3423C212.513 68.0878 212.256 68.6842 211.792 69.0818C211.329 69.4794 210.609 69.7279 209.734 69.7279H206.182V61.279H209.528C210.351 61.279 211.02 61.4778 211.484 61.8257C211.947 62.2233 212.204 62.7203 212.204 63.4161C212.204 63.8137 212.101 64.2113 211.947 64.5095C211.792 64.8077 211.535 65.0562 211.175 65.255C211.587 65.4538 211.947 65.7023 212.153 66.0502ZM207.829 64.758H209.373C209.734 64.758 209.991 64.6586 210.197 64.5095C210.403 64.3604 210.454 64.0622 210.454 63.764C210.454 63.4161 210.351 63.1676 210.145 63.0185C209.939 62.8197 209.682 62.77 209.322 62.77H207.778V64.758H207.829ZM210.814 67.1435C210.814 66.4477 210.403 66.0999 209.631 66.0999H207.778V68.2369H209.631C210.454 68.2369 210.814 67.889 210.814 67.1435Z" fill="#364287"/>
<path d="M215.498 69.2806C214.881 68.883 214.418 68.386 214.109 67.7399C213.748 67.0938 213.594 66.3483 213.594 65.5034C213.594 64.6585 213.748 63.9131 214.109 63.267C214.469 62.6209 214.932 62.0742 215.498 61.7263C216.116 61.3287 216.785 61.1796 217.506 61.1796C218.278 61.1796 218.947 61.3784 219.513 61.7263C220.131 62.1239 220.594 62.6209 220.903 63.267C221.263 63.9131 221.418 64.6585 221.418 65.5034C221.418 66.3483 221.263 67.0938 220.903 67.7399C220.543 68.386 220.08 68.9327 219.513 69.2806C218.896 69.6782 218.227 69.8273 217.506 69.8273C216.785 69.8273 216.116 69.6285 215.498 69.2806ZM218.69 67.8393C219.05 67.5908 219.307 67.2926 219.513 66.895C219.719 66.4974 219.822 66.0004 219.822 65.5034C219.822 65.0064 219.719 64.5094 219.513 64.1119C219.307 63.7143 219.05 63.3664 218.69 63.1676C218.329 62.9191 217.969 62.8197 217.557 62.8197C217.146 62.8197 216.734 62.9191 216.425 63.1676C216.116 63.4161 215.807 63.7143 215.601 64.1119C215.395 64.5094 215.293 65.0064 215.293 65.5034C215.293 66.0004 215.395 66.4974 215.601 66.895C215.807 67.2926 216.065 67.6405 216.425 67.8393C216.785 68.0381 217.146 68.1872 217.557 68.1872C217.969 68.1872 218.381 68.0381 218.69 67.8393Z" fill="#364287"/>
<path d="M230.271 68.0878V71.4177H228.727V69.6782H223.631V71.4177H222.087V68.0878H222.396C222.808 68.0878 223.116 67.6902 223.322 66.9944C223.477 66.249 223.631 65.255 223.631 63.9131L223.734 61.279H229.293V68.0878H230.271ZM224.918 66.5968C224.815 67.2926 224.661 67.7896 224.403 68.0878H227.646V62.8694H225.175L225.124 64.0622C225.072 65.0562 225.021 65.9011 224.918 66.5968Z" fill="#364287"/>
<path d="M233.102 69.2806C232.485 68.883 232.021 68.386 231.712 67.7399C231.352 67.0938 231.198 66.3483 231.198 65.5034C231.198 64.6585 231.352 63.9131 231.712 63.267C232.073 62.6209 232.536 62.0742 233.102 61.7263C233.72 61.3287 234.389 61.1796 235.11 61.1796C235.882 61.1796 236.551 61.3784 237.117 61.7263C237.735 62.1239 238.198 62.6209 238.507 63.267C238.867 63.9131 239.022 64.6585 239.022 65.5034C239.022 66.3483 238.867 67.0938 238.507 67.7399C238.147 68.386 237.683 68.9327 237.117 69.2806C236.499 69.6782 235.83 69.8273 235.11 69.8273C234.389 69.8273 233.72 69.6285 233.102 69.2806ZM236.294 67.8393C236.654 67.5908 236.911 67.2926 237.117 66.895C237.323 66.4974 237.426 66.0004 237.426 65.5034C237.426 65.0064 237.323 64.5094 237.117 64.1119C236.911 63.7143 236.654 63.3664 236.294 63.1676C235.933 62.9191 235.573 62.8197 235.161 62.8197C234.749 62.8197 234.338 62.9191 234.029 63.1676C233.72 63.4161 233.36 63.6646 233.154 64.0622C232.948 64.4598 232.845 64.9567 232.845 65.4537C232.845 65.9507 232.948 66.4477 233.154 66.8453C233.36 67.2429 233.617 67.5908 233.977 67.7896C234.338 67.9884 234.698 68.1375 235.11 68.1375C235.573 68.1872 235.933 68.0381 236.294 67.8393Z" fill="#364287"/>
<path d="M246.64 66.0502C246.897 66.398 247 66.7956 247 67.3423C247 68.0878 246.743 68.6842 246.279 69.0818C245.816 69.4794 245.095 69.7279 244.22 69.7279H240.669V61.279H244.015C244.838 61.279 245.507 61.4778 245.971 61.8257C246.434 62.1736 246.691 62.7203 246.691 63.4161C246.691 63.8137 246.588 64.2113 246.434 64.5095C246.279 64.8077 246.022 65.0562 245.662 65.255C246.073 65.4538 246.434 65.7023 246.64 66.0502ZM242.316 64.758H243.86C244.22 64.758 244.478 64.6586 244.684 64.5095C244.89 64.3604 244.941 64.0622 244.941 63.764C244.941 63.4161 244.838 63.1676 244.632 63.0185C244.426 62.8197 244.169 62.77 243.809 62.77H242.264V64.758H242.316ZM245.301 67.1435C245.301 66.4477 244.89 66.0999 244.118 66.0999H242.264V68.2369H244.118C244.941 68.2369 245.301 67.889 245.301 67.1435Z" fill="#364287"/>
<defs>
<linearGradient id="paint0_linear_1568_1013" x1="18.0271" y1="19.1516" x2="45.6561" y2="22.2036" gradientUnits="userSpaceOnUse">
<stop stop-color="#093383"/>
<stop offset="1" stop-color="#016CB0"/>
</linearGradient>
<linearGradient id="paint1_linear_1568_1013" x1="37.7851" y1="45.8168" x2="68.466" y2="32.3235" gradientUnits="userSpaceOnUse">
<stop stop-color="#093283"/>
<stop offset="1" stop-color="#026AAF"/>
</linearGradient>
<linearGradient id="paint2_linear_1568_1013" x1="17.2239" y1="55.1335" x2="46.138" y2="48.5475" gradientUnits="userSpaceOnUse">
<stop stop-color="#08408E"/>
<stop offset="1" stop-color="#0361A8"/>
</linearGradient>
<linearGradient id="paint3_linear_1568_1013" x1="17.0633" y1="59.1493" x2="42.2828" y2="69.9118" gradientUnits="userSpaceOnUse">
<stop stop-color="#093384"/>
<stop offset="1" stop-color="#0269AE"/>
</linearGradient>
<linearGradient id="paint4_linear_1568_1013" x1="34.8936" y1="55.2941" x2="57.543" y2="59.4706" gradientUnits="userSpaceOnUse">
<stop stop-color="#093182"/>
<stop offset="1" stop-color="#0268AD"/>
</linearGradient>
<linearGradient id="paint5_linear_1568_1013" x1="1" y1="12.7262" x2="28.9502" y2="19.9548" gradientUnits="userSpaceOnUse">
<stop stop-color="#0A277A"/>
<stop offset="1" stop-color="#016DB1"/>
</linearGradient>
<linearGradient id="paint6_linear_1568_1013" x1="4.69454" y1="45.8168" x2="35.3755" y2="32.3235" gradientUnits="userSpaceOnUse">
<stop stop-color="#093283"/>
<stop offset="1" stop-color="#026AAF"/>
</linearGradient>
<linearGradient id="paint7_linear_1568_1013" x1="34.0905" y1="12.7262" x2="62.0407" y2="19.9548" gradientUnits="userSpaceOnUse">
<stop stop-color="#0A277A"/>
<stop offset="1" stop-color="#016DB1"/>
</linearGradient>
<linearGradient id="paint8_linear_1568_1013" x1="51.1176" y1="19.1516" x2="78.7466" y2="22.2036" gradientUnits="userSpaceOnUse">
<stop stop-color="#093383"/>
<stop offset="1" stop-color="#016CB0"/>
</linearGradient>
</defs>
</svg>
