<svg width="610" height="225" viewBox="0 0 610 225" fill="none" xmlns="http://www.w3.org/2000/svg">
<path d="M142.875 62.7408L108.952 128.129C108.764 128.491 108.244 128.487 108.061 128.122L76.1159 64.2317C76.0432 64.0864 76.0457 63.9149 76.1225 63.7717L108.571 3.29883C108.757 2.95196 109.253 2.94625 109.447 3.28873L142.866 62.264C142.95 62.4112 142.953 62.5906 142.875 62.7408Z" fill="url(#paint0_linear_1568_974)" stroke="white" stroke-width="4"/>
<path d="M141.856 128.746L105.421 64.2459C105.233 63.9126 105.474 63.5 105.857 63.5H178.192C178.381 63.5 178.554 63.6064 178.639 63.775L211.135 128.275C211.302 128.608 211.061 129 210.688 129H142.292C142.112 129 141.945 128.903 141.856 128.746Z" fill="url(#paint1_linear_1568_974)" stroke="white" stroke-width="4"/>
<path d="M73 129.5L56.5 163H127L161 100.5L162.5 95.5L126.5 97.5L110 129.5H73Z" fill="url(#paint2_linear_1568_974)"/>
<path d="M73.5 128.5L56.8553 162.279C56.6915 162.611 56.9334 163 57.3038 163H127.698C127.884 163 128.054 162.897 128.141 162.733L163.115 96.2327C163.29 95.8998 163.048 95.5 162.672 95.5H123" stroke="white" stroke-width="4"/>
<path d="M90.3564 222.747L56.923 163.747C56.7341 163.413 56.9749 163 57.358 163H127.215C127.392 163 127.555 163.093 127.645 163.245L162.554 222.245C162.751 222.579 162.51 223 162.123 223H90.7914C90.6113 223 90.4451 222.903 90.3564 222.747Z" fill="url(#paint3_linear_1568_974)" stroke="white" stroke-width="4"/>
<path d="M196.874 159.736L163.419 222.217C163.235 222.561 162.746 222.571 162.548 222.236L127.643 163.241C127.554 163.091 127.55 162.906 127.631 162.752L162.56 96.8295C162.748 96.4758 163.254 96.4747 163.443 96.8276L196.874 159.264C196.953 159.411 196.953 159.589 196.874 159.736Z" fill="url(#paint4_linear_1568_974)" stroke="white" stroke-width="4"/>
<path d="M36.3567 2.25538L2.41772 62.7554C2.23075 63.0887 2.47163 63.5 2.85379 63.5H75.1987C75.384 63.5 75.5542 63.3975 75.6408 63.2336L107.612 2.73361C107.788 2.40063 107.547 2 107.17 2H36.7928C36.612 2 36.4452 2.09766 36.3567 2.25538Z" fill="url(#paint5_linear_1568_974)" stroke="white" stroke-width="4"/>
<path d="M38.8565 128.746L2.42136 64.2459C2.23308 63.9126 2.47389 63.5 2.8567 63.5H75.192C75.3809 63.5 75.5536 63.6064 75.6386 63.775L108.135 128.275C108.302 128.608 108.061 129 107.688 129H39.2918C39.1115 129 38.9452 128.903 38.8565 128.746Z" fill="url(#paint6_linear_1568_974)" stroke="white" stroke-width="4"/>
<path d="M139.357 2.25538L105.418 62.7554C105.231 63.0887 105.472 63.5 105.854 63.5H178.199C178.384 63.5 178.554 63.3975 178.641 63.2336L210.612 2.73361C210.788 2.40063 210.547 2 210.17 2H139.793C139.612 2 139.445 2.09766 139.357 2.25538Z" fill="url(#paint7_linear_1568_974)" stroke="white" stroke-width="4"/>
<path d="M245.875 62.7408L211.952 128.129C211.764 128.491 211.244 128.487 211.061 128.122L179.116 64.2317C179.043 64.0864 179.046 63.9149 179.122 63.7717L211.571 3.29883C211.757 2.95196 212.253 2.94625 212.447 3.28873L245.866 62.264C245.95 62.4112 245.953 62.5906 245.875 62.7408Z" fill="url(#paint8_linear_1568_974)" stroke="white" stroke-width="4"/>
<path d="M325.991 127.482H280.5V44.5H323.601C334.375 44.5 342.456 46.4574 348.026 50.1842L348.037 50.1914C353.646 53.8731 356.349 58.9 356.349 65.5401C356.349 69.3488 355.393 72.6964 353.62 75.5174C351.844 78.3442 349.204 80.7122 345.851 82.5939L342.985 84.2018L346.077 85.3136C350.767 87 354.256 89.3829 356.659 92.5122C359.04 95.6133 360.217 99.4536 360.217 104.023C360.217 111.241 357.375 116.834 351.511 121.058C345.606 125.311 337.202 127.482 325.991 127.482ZM306.627 76.0955V77.5955H308.127H320.643C323.267 77.5955 325.506 77.0404 327.099 75.6637C328.735 74.2501 329.425 72.2054 329.425 69.8282C329.425 67.4085 328.743 65.3178 327.121 63.8607C325.529 62.431 323.283 61.8411 320.643 61.8411H308.127H306.627V63.3411V76.0955ZM308.127 93.7271H306.627V95.2271V108.751V110.251H308.127H324.625C327.233 110.251 329.486 109.622 331.088 108.11C332.705 106.584 333.407 104.396 333.407 101.824C333.407 99.3602 332.732 97.2415 331.11 95.7667C329.516 94.3169 327.265 93.7271 324.625 93.7271H308.127Z" fill="#0275B4" stroke="#364287" stroke-width="3"/>
<path d="M367.5 127.375V44.5H439.598V63.3525H394.614H393.114V64.8525V77.1513V78.6513H394.614H436.2V93.2212H394.614H393.114V94.7212V107.13V108.63H394.614H437.7H439.598V127.48L367.5 127.375Z" fill="#0275B4" stroke="#364287" stroke-width="3"/>
<path d="M476.456 65.1094H474.956V66.6094V127.482H448.5V44.5H517.333V65.1094H514.344H476.456Z" fill="#0275B4" stroke="#364287" stroke-width="3"/>
<path d="M576.935 114.933L576.56 113.986H575.541H544.522H543.504L543.128 114.933L538.062 127.7H513.245L547.701 44.5H572.797L607.254 127.7H582.002L576.935 114.933ZM567.922 95.2187H570.078L569.329 93.1975L561.384 71.7563L559.977 67.9606L558.571 71.7563L550.626 93.1975L549.877 95.2187H552.032H567.922Z" fill="#0275B4" stroke="#364287" stroke-width="3"/>
<path d="M283.487 179.69C282.098 178.865 281.03 177.833 280.175 176.492C279.427 175.048 279 173.501 279 171.748C279 169.994 279.427 168.447 280.175 167.106C281.03 165.765 282.098 164.63 283.487 163.908C284.876 163.083 286.478 162.774 288.294 162.774C289.79 162.774 291.072 163.083 292.247 163.599C293.422 164.115 294.49 164.94 295.238 165.868L292.674 168.24C291.499 166.9 290.11 166.177 288.401 166.177C287.333 166.177 286.371 166.384 285.624 166.9C284.769 167.415 284.128 168.034 283.701 168.859C283.273 169.788 282.953 170.716 282.953 171.748C282.953 172.779 283.166 173.811 283.594 174.636C284.021 175.461 284.662 176.183 285.517 176.596C286.478 177.111 287.333 177.421 288.401 177.421C290.11 177.421 291.499 176.699 292.674 175.358L295.238 177.73C294.384 178.762 293.422 179.484 292.247 180.103C291.072 180.618 289.683 180.928 288.187 180.928C286.478 180.825 284.876 180.412 283.487 179.69Z" fill="#364287"/>
<path d="M308.806 177.319V180.516H297.268V163.084H308.592V166.282H300.687V170.098H307.631V173.193H300.687V177.215H308.806V177.319Z" fill="#364287"/>
<path d="M323.655 166.385H318.848V180.516H315.429V166.385H310.622V163.084H323.655V166.385Z" fill="#364287"/>
<path d="M336.795 170.201C337.757 171.13 338.291 172.574 338.291 174.43C338.291 176.39 337.757 177.938 336.689 178.969C335.62 180.001 334.125 180.516 332.095 180.516H325.364V163.084H328.783V168.86H332.629C334.338 168.757 335.727 169.273 336.795 170.201ZM333.911 176.803C334.445 176.287 334.659 175.565 334.659 174.534C334.659 172.677 333.697 171.852 331.774 171.852H328.676V177.628H331.774C332.736 177.525 333.484 177.319 333.911 176.803Z" fill="#364287"/>
<path d="M346.837 163.084H358.909V166.282H350.256V169.892H354.422C356.239 169.892 357.627 170.304 358.589 171.233C359.55 172.161 359.978 173.399 359.978 175.049C359.978 176.803 359.443 178.144 358.375 179.072C357.307 180.001 355.811 180.516 353.888 180.516H346.731V163.084H346.837ZM353.675 177.525C354.529 177.525 355.277 177.319 355.704 176.906C356.132 176.493 356.452 175.875 356.452 175.152C356.452 173.605 355.491 172.883 353.675 172.883H350.256V177.628H353.675V177.525Z" fill="#364287"/>
<path d="M374.72 177.319V180.516H363.183V163.084H374.507V166.282H366.601V170.098H373.545V173.193H366.601V177.215H374.72V177.319Z" fill="#364287"/>
<path d="M389.57 166.385H384.762V180.516H381.344V166.385H376.536V163.084H389.57V166.385Z" fill="#364287"/>
<path d="M395.018 179.691C393.736 178.866 392.775 177.834 392.134 176.493C391.386 175.152 391.065 173.605 391.065 171.852C391.065 170.098 391.386 168.551 392.134 167.21C392.882 165.869 393.843 164.734 395.018 164.012C396.3 163.187 397.689 162.878 399.185 162.878C400.787 162.878 402.176 163.29 403.351 164.012C404.633 164.837 405.594 165.869 406.235 167.21C406.983 168.551 407.304 170.098 407.304 171.852C407.304 173.605 406.983 175.152 406.235 176.493C405.488 177.834 404.526 178.969 403.351 179.691C402.069 180.516 400.68 180.826 399.185 180.826C397.689 180.826 396.3 180.413 395.018 179.691ZM401.642 176.7C402.389 176.184 402.924 175.565 403.351 174.74C403.778 173.915 403.992 172.883 403.992 171.852C403.992 170.82 403.778 169.789 403.351 168.963C402.924 168.138 402.389 167.416 401.642 167.004C400.894 166.488 400.146 166.282 399.291 166.282C398.437 166.282 397.582 166.488 396.941 167.004C396.3 167.519 395.659 168.138 395.232 168.963C394.804 169.789 394.591 170.82 394.591 171.852C394.591 172.883 394.804 173.915 395.232 174.74C395.659 175.565 396.193 176.287 396.941 176.7C397.689 177.112 398.437 177.422 399.291 177.422C400.146 177.422 400.894 177.112 401.642 176.7Z" fill="#364287"/>
<path d="M424.397 163.084V180.516H420.978V173.399H414.141V180.516H410.722V163.084H414.141V169.892H420.978V163.084H424.397Z" fill="#364287"/>
<path d="M442.451 163.084V180.516H439.032V173.399H432.195V180.516H428.777V163.084H432.195V169.892H439.032V163.084H442.451Z" fill="#364287"/>
<path d="M458.262 170.201C459.223 171.13 459.758 172.574 459.758 174.43C459.758 176.39 459.223 177.938 458.155 178.969C457.087 180.001 455.591 180.516 453.561 180.516H446.724V163.084H450.143V168.86H453.989C455.805 168.757 457.3 169.273 458.262 170.201ZM455.484 176.803C456.018 176.287 456.232 175.565 456.232 174.534C456.232 172.677 455.271 171.852 453.348 171.852H450.25V177.628H453.348C454.202 177.525 454.95 177.319 455.484 176.803ZM461.574 163.084H464.992V180.516H461.574V163.084Z" fill="#364287"/>
<path d="M472.043 163.084L475.141 168.345L478.239 163.084H482.299L477.278 171.439L482.726 180.516H478.667L475.141 174.74L471.723 180.516H467.77L473.111 171.542L468.09 162.981H472.043V163.084Z" fill="#364287"/>
<path d="M502.49 173.09C503.024 173.812 503.238 174.74 503.238 175.668C503.238 176.7 502.917 177.628 502.383 178.453C501.742 179.278 500.994 179.794 499.926 180.207C498.858 180.619 497.789 180.826 496.614 180.826C495.546 180.826 494.584 180.723 493.516 180.413C492.448 180.104 491.486 179.691 490.632 179.072L491.7 176.184C492.341 176.7 493.089 177.009 493.836 177.215C494.584 177.422 495.439 177.628 496.187 177.628C497.255 177.628 498.11 177.422 498.751 177.009C499.392 176.597 499.819 175.978 499.819 175.152C499.819 174.534 499.605 174.018 499.071 173.708C498.644 173.399 498.003 173.193 497.148 173.193H493.516V170.098H496.935C497.682 170.098 498.217 169.892 498.537 169.582C498.964 169.273 499.178 168.757 499.178 168.241C499.178 167.519 498.858 167.004 498.323 166.694C497.789 166.385 497.041 166.075 496.187 166.075C495.546 166.075 494.905 166.178 494.157 166.385C493.409 166.591 492.768 166.901 492.127 167.313L491.059 164.219C492.661 163.29 494.371 162.775 496.187 162.775C497.362 162.775 498.43 162.981 499.392 163.393C500.353 163.806 501.208 164.425 501.742 165.147C502.276 165.869 502.597 166.797 502.597 167.829C502.597 168.654 502.383 169.376 502.062 170.098C501.635 170.717 501.101 171.233 500.46 171.645C501.315 171.749 502.062 172.264 502.49 173.09Z" fill="#364287"/>
<path d="M516.698 176.803H509.754L508.472 180.516H504.947L511.677 163.084H515.096L521.826 180.516H518.194L516.698 176.803ZM515.63 173.708L513.28 167.004L510.929 173.708H515.63Z" fill="#364287"/>
<path d="M536.676 172.986C537.21 173.708 537.423 174.534 537.423 175.668C537.423 177.215 536.889 178.453 535.928 179.278C534.966 180.104 533.471 180.619 531.655 180.619H524.283V163.084H531.227C532.937 163.084 534.325 163.497 535.287 164.219C536.248 165.044 536.782 166.075 536.782 167.519C536.782 168.345 536.569 169.17 536.248 169.789C535.928 170.408 535.394 170.923 534.646 171.336C535.501 171.749 536.248 172.264 536.676 172.986ZM527.702 170.304H530.907C531.655 170.304 532.189 170.098 532.616 169.789C533.043 169.479 533.15 168.86 533.15 168.241C533.15 167.519 532.937 167.004 532.509 166.694C532.082 166.282 531.548 166.178 530.8 166.178H527.595V170.304H527.702ZM533.898 175.256C533.898 173.812 533.043 173.09 531.441 173.09H527.595V177.525H531.441C533.15 177.525 533.898 176.803 533.898 175.256Z" fill="#364287"/>
<path d="M543.62 179.691C542.338 178.866 541.376 177.834 540.735 176.493C539.987 175.152 539.667 173.605 539.667 171.852C539.667 170.098 539.987 168.551 540.735 167.21C541.483 165.869 542.444 164.734 543.62 164.012C544.902 163.187 546.29 162.878 547.786 162.878C549.388 162.878 550.777 163.29 551.952 164.012C553.234 164.837 554.196 165.869 554.837 167.21C555.585 168.551 555.905 170.098 555.905 171.852C555.905 173.605 555.585 175.152 554.837 176.493C554.089 177.834 553.127 178.969 551.952 179.691C550.67 180.516 549.282 180.826 547.786 180.826C546.29 180.826 544.902 180.413 543.62 179.691ZM550.243 176.7C550.991 176.184 551.525 175.565 551.952 174.74C552.38 173.915 552.593 172.883 552.593 171.852C552.593 170.82 552.38 169.789 551.952 168.963C551.525 168.138 550.991 167.416 550.243 167.004C549.495 166.488 548.747 166.282 547.893 166.282C547.038 166.282 546.183 166.488 545.543 167.004C544.902 167.519 544.261 168.138 543.833 168.963C543.406 169.789 543.192 170.82 543.192 171.852C543.192 172.883 543.406 173.915 543.833 174.74C544.261 175.565 544.795 176.287 545.543 176.7C546.29 177.112 547.038 177.422 547.893 177.422C548.747 177.422 549.602 177.112 550.243 176.7Z" fill="#364287"/>
<path d="M574.28 177.215V184.127H571.075V180.516H560.499V184.127H557.294V177.215H557.935C558.79 177.215 559.431 176.39 559.858 174.946C560.178 173.399 560.499 171.336 560.499 168.551L560.713 163.084H572.25V177.215H574.28ZM563.17 174.121C562.956 175.565 562.636 176.597 562.101 177.215H568.832V166.385H563.704L563.597 168.86C563.49 170.923 563.383 172.677 563.17 174.121Z" fill="#364287"/>
<path d="M580.156 179.691C578.874 178.866 577.912 177.834 577.271 176.493C576.524 175.152 576.203 173.605 576.203 171.852C576.203 170.098 576.524 168.551 577.271 167.21C578.019 165.869 578.981 164.734 580.156 164.012C581.438 163.187 582.827 162.878 584.322 162.878C585.925 162.878 587.313 163.29 588.489 164.012C589.771 164.837 590.732 165.869 591.373 167.21C592.121 168.551 592.441 170.098 592.441 171.852C592.441 173.605 592.121 175.152 591.373 176.493C590.625 177.834 589.664 178.969 588.489 179.691C587.207 180.516 585.818 180.826 584.322 180.826C582.827 180.826 581.438 180.413 580.156 179.691ZM586.779 176.7C587.527 176.184 588.061 175.565 588.489 174.74C588.916 173.915 589.13 172.883 589.13 171.852C589.13 170.82 588.916 169.789 588.489 168.963C588.061 168.138 587.527 167.416 586.779 167.004C586.032 166.488 585.284 166.282 584.429 166.282C583.574 166.282 582.72 166.488 582.079 167.004C581.438 167.519 580.69 168.035 580.263 168.86C579.835 169.686 579.622 170.717 579.622 171.749C579.622 172.78 579.835 173.812 580.263 174.637C580.69 175.462 581.224 176.184 581.972 176.597C582.72 177.009 583.468 177.319 584.322 177.319C585.284 177.422 586.032 177.112 586.779 176.7Z" fill="#364287"/>
<path d="M608.252 172.986C608.787 173.708 609 174.534 609 175.668C609 177.215 608.466 178.453 607.505 179.278C606.543 180.104 605.047 180.619 603.231 180.619H595.86V163.084H602.804C604.513 163.084 605.902 163.497 606.864 164.219C607.825 164.941 608.359 166.075 608.359 167.519C608.359 168.345 608.146 169.17 607.825 169.789C607.505 170.408 606.97 170.923 606.223 171.336C607.077 171.749 607.825 172.264 608.252 172.986ZM599.279 170.304H602.484C603.231 170.304 603.766 170.098 604.193 169.789C604.62 169.479 604.727 168.86 604.727 168.241C604.727 167.519 604.513 167.004 604.086 166.694C603.659 166.282 603.125 166.178 602.377 166.178H599.172V170.304H599.279ZM605.475 175.256C605.475 173.812 604.62 173.09 603.018 173.09H599.172V177.525H603.018C604.727 177.525 605.475 176.803 605.475 175.256Z" fill="#364287"/>
<defs>
<linearGradient id="paint0_linear_1568_974" x1="55" y1="58.5" x2="141" y2="68" gradientUnits="userSpaceOnUse">
<stop stop-color="#093383"/>
<stop offset="1" stop-color="#016CB0"/>
</linearGradient>
<linearGradient id="paint1_linear_1568_974" x1="116.5" y1="141.5" x2="212" y2="99.5" gradientUnits="userSpaceOnUse">
<stop stop-color="#093283"/>
<stop offset="1" stop-color="#026AAF"/>
</linearGradient>
<linearGradient id="paint2_linear_1568_974" x1="52.5" y1="170.5" x2="142.5" y2="150" gradientUnits="userSpaceOnUse">
<stop stop-color="#08408E"/>
<stop offset="1" stop-color="#0361A8"/>
</linearGradient>
<linearGradient id="paint3_linear_1568_974" x1="52" y1="183" x2="130.5" y2="216.5" gradientUnits="userSpaceOnUse">
<stop stop-color="#093384"/>
<stop offset="1" stop-color="#0269AE"/>
</linearGradient>
<linearGradient id="paint4_linear_1568_974" x1="107.5" y1="171" x2="178" y2="184" gradientUnits="userSpaceOnUse">
<stop stop-color="#093182"/>
<stop offset="1" stop-color="#0268AD"/>
</linearGradient>
<linearGradient id="paint5_linear_1568_974" x1="2" y1="38.5" x2="89" y2="61" gradientUnits="userSpaceOnUse">
<stop stop-color="#0A277A"/>
<stop offset="1" stop-color="#016DB1"/>
</linearGradient>
<linearGradient id="paint6_linear_1568_974" x1="13.5" y1="141.5" x2="109" y2="99.5" gradientUnits="userSpaceOnUse">
<stop stop-color="#093283"/>
<stop offset="1" stop-color="#026AAF"/>
</linearGradient>
<linearGradient id="paint7_linear_1568_974" x1="105" y1="38.5" x2="192" y2="61" gradientUnits="userSpaceOnUse">
<stop stop-color="#0A277A"/>
<stop offset="1" stop-color="#016DB1"/>
</linearGradient>
<linearGradient id="paint8_linear_1568_974" x1="158" y1="58.5" x2="244" y2="68" gradientUnits="userSpaceOnUse">
<stop stop-color="#093383"/>
<stop offset="1" stop-color="#016CB0"/>
</linearGradient>
</defs>
</svg>
