<svg width="30" height="30" viewBox="0 0 30 30" fill="none" xmlns="http://www.w3.org/2000/svg">
<path d="M27.3633 4.72311H2.63672C1.18283 4.72311 0 5.90595 0 7.35983V22.64C0 24.0939 1.18283 25.2767 2.63672 25.2767H27.3633C28.8172 25.2767 30 24.0939 30 22.64V7.35983C30 5.90595 28.8172 4.72311 27.3633 4.72311ZM27.0192 6.48093L26.6672 6.77395L16.0461 15.6182C15.4399 16.1229 14.56 16.1229 13.9539 15.6182L3.33275 6.77395L2.98084 6.48093H27.0192ZM1.75781 7.74995L10.4116 14.956L1.75781 20.7153V7.74995ZM27.3633 23.5189H2.63672C2.21203 23.5189 1.85684 23.2161 1.77545 22.8152L11.8211 16.1296L12.8291 16.969C13.458 17.4927 14.2291 17.7545 15.0001 17.7545C15.771 17.7545 16.542 17.4927 17.171 16.969L18.1791 16.1296L28.2246 22.8151C28.1432 23.2162 27.788 23.5189 27.3633 23.5189ZM28.2422 20.7153L19.5884 14.956L28.2422 7.74995V20.7153Z" fill="#1C2229"/>
</svg>
