<svg width="30" height="30" viewBox="0 0 30 30" fill="none" xmlns="http://www.w3.org/2000/svg">
<path d="M0 14.375C0 7.59856 0 4.21034 2.10517 2.10517C4.21034 0 7.59856 0 14.375 0H15.625C22.4014 0 25.7897 0 27.8948 2.10517C30 4.21034 30 7.59856 30 14.375V15.625C30 22.4014 30 25.7897 27.8948 27.8948C25.7897 30 22.4014 30 15.625 30H14.375C7.59856 30 4.21034 30 2.10517 27.8948C0 25.7897 0 22.4014 0 15.625L0 14.375Z" fill="#2787F5"/>
<path fill-rule="evenodd" clip-rule="evenodd" d="M8.12471 9.375H5.93671C5.31156 9.375 5.18652 9.66925 5.18652 9.99363C5.18652 10.5731 5.92831 13.4467 8.6404 17.2474C10.4485 19.843 12.9958 21.25 15.3139 21.25C16.7047 21.25 16.8768 20.9375 16.8768 20.3992V18.4375C16.8768 17.8125 17.0085 17.6877 17.4489 17.6877C17.7735 17.6877 18.3298 17.85 19.6279 19.1014C21.1115 20.5846 21.356 21.25 22.1905 21.25H24.3785C25.0037 21.25 25.3162 20.9375 25.1359 20.3208C24.9386 19.7062 24.2303 18.8144 23.2904 17.7573C22.7804 17.1547 22.0155 16.5059 21.7837 16.1814C21.4592 15.7642 21.5518 15.5788 21.7837 15.2081C21.7837 15.2081 24.4494 11.4537 24.7276 10.1791C24.8666 9.71556 24.7276 9.375 24.0659 9.375H21.8779C21.3216 9.375 21.0651 9.66925 20.926 9.99363C20.926 9.99363 19.8133 12.7051 18.2371 14.4664C17.7271 14.9762 17.4953 15.1385 17.2171 15.1385C17.078 15.1385 16.8767 14.9763 16.8767 14.5128V10.1791C16.8767 9.62288 16.7153 9.375 16.2516 9.375H12.8133C12.4656 9.375 12.2565 9.63312 12.2565 9.87781C12.2565 10.4051 13.0446 10.5267 13.1259 12.0099V15.2312C13.1259 15.9375 12.9983 16.0656 12.7201 16.0656C11.9784 16.0656 10.1741 13.3419 9.10396 10.2254C8.89427 9.61969 8.6839 9.375 8.12471 9.375V9.375Z" fill="white"/>
</svg>
